<?xml version="1.0" encoding="UTF-8"?>
<svg id="Layer_1" data-name="Layer 1" xmlns="http://www.w3.org/2000/svg" viewBox="0 0 530.4 353.62">
  <defs>
    <style>
      .cls-1 {
        fill: #1058e9;
      }
    </style>
  </defs>
  <path class="cls-1" d="M156.64,1.07c-27.2,3.1-55.1,13.4-78.2,28.8C38.84,56.37,12.04,96.67,2.44,144.17c-3,15-3.3,48.9-.5,63.5,6.9,36.2,22.4,66.6,47.2,92.2,26,26.9,55.7,43.3,93,51.2,9.9,2.2,13.5,2.4,35,2.4,21.1-.1,25.2-.3,34-2.3,12.7-2.8,24.5-6.4,33-10.1l6.7-2.8-8.9-5.8c-10.6-7.1-28.2-24.3-34.4-33.8-3.9-6-4.7-6.8-6.9-6.3-1.4.4-8,1.1-14.6,1.8-46.5,4.5-93.2-21.9-114.6-64.7-22.7-45.4-13.2-100.7,23.3-136,14.7-14.2,28.3-22.4,46.9-28.3,13.6-4.3,24.3-5.6,40.6-4.9,18,.7,29.6,3.6,45.9,11.7,14.6,7.2,22.4,13,34.1,25.3,28,29.5,38.2,69.8,27.9,110.3-3.7,14.6-13.3,33.3-22.7,44.2l-2.8,3.2-5.7-7.7c-14.1-19.1-21.6-39.8-23-64-1.2-22.1,4.6-46.7,15.3-64.4,1.9-3.1,3.4-6.2,3.4-6.8,0-2.2-13.6-14.9-21.3-19.9-7.1-4.6-19-10-25.9-11.6-2.5-.6-3-.1-6.9,6.6-40.9,69.9-29.8,157.8,27.1,214.8,25.1,25.2,55.2,41.4,91,49.2,14.4,3.1,51,3.3,66.5.4,22.2-4.1,48.1-14.7,67-27.4,52.9-35.6,83.2-98.4,77.6-161-.6-7.5-1.5-14-2-14.5-.4-.4-26.8-.6-58.7-.5l-57.9.3v58l27.8.3c15.2.1,27.7.6,27.7,1,0,2.1-5.1,15.5-8.5,22.2-21.7,43.1-68.6,69.1-115.7,64.2-10.7-1.1-26.8-4.8-26.8-6.1,0-.3,2.3-3.8,5.1-7.6,14.5-20,25.5-46,30.6-72.8,2.8-14.6,2.5-48.5-.5-63.5-5.4-26.7-16.7-52.4-31.8-72.4l-4.3-5.7,5.2-1.6c18.1-5.4,43.9-5.9,62-1.2,21.2,5.6,37.7,15,53.2,30.2,5.8,5.8,12.4,13.5,15.6,18.2l5.4,8.3h32.2c17.8,0,32.3-.2,32.3-.5,0-.2-1.1-3.3-2.4-6.7-3.8-10.3-11-23.8-18.7-35.4-10-14.9-31.2-36.2-46.2-46.3-20.4-13.7-44.9-23.9-68.5-28.3-14.1-2.7-45.7-3.2-58.2-1-19.9,3.6-32.5,7.6-50.1,15.9l-11.6,5.5-10.4-5.1C223.94,3.37,189.64-2.63,156.64,1.07Z"/>
</svg>